<svg xmlns="http://www.w3.org/2000/svg" width="300" height="47.377420630448285" version="1.1">
    <defs></defs>
    <g transform="scale(0.5931667193925971)" opacity="1">
        <g transform="translate(-12.91408695652174, -14.324862468458177) scale(1.085217391304348)" light-content="false" fill="#2fbe0a">
            <path d="M11.9 39.5h8v20.9h-8zM30 25.6h8v48.9h-8zm18.1-12.4h8v73.6h-8zm36.3 26.3h8v20.9h-8zM66.3 25.6h8v48.9h-8z"></path>
        </g>
        <g transform="translate(121.34000000000003, 61.69100709675922)" light-content="false" fill="#ffffff">
            <path d="M3.02 -21.74C3.02 -18.65 3.62 -15.75 4.82 -13.02C6.02 -10.3 7.74 -7.92 9.99 -5.87C12.24 -3.83 14.97 -2.22 18.18 -1.04C21.39 0.14 25 0.73 29 0.73C31.05 0.73 33.06 0.61 35.01 0.35C36.96 0.1 38.8 -0.24 40.53 -0.66C42.26 -1.08 43.83 -1.55 45.23 -2.08C46.64 -2.61 47.82 -3.15 48.78 -3.72L48.75 -3.78L48.75 -15.62L51.8 -21.15L34.72 -21.15L34.72 -6.42C32.72 -6.42 30.87 -6.78 29.17 -7.51C27.46 -8.25 25.98 -9.28 24.74 -10.62C23.5 -11.96 22.53 -13.57 21.83 -15.45C21.12 -17.34 20.77 -19.44 20.77 -21.77C20.77 -24.11 21.13 -26.23 21.84 -28.11C22.55 -30 23.54 -31.6 24.79 -32.93C26.04 -34.26 27.52 -35.28 29.24 -36.01C30.96 -36.73 32.82 -37.09 34.83 -37.09C36.34 -37.09 37.79 -36.91 39.18 -36.55C40.58 -36.19 41.83 -35.74 42.92 -35.21L45.44 -40.14C44.48 -40.68 43.41 -41.21 42.23 -41.7C41.05 -42.2 39.77 -42.64 38.38 -43.02C36.99 -43.4 35.51 -43.7 33.94 -43.92C32.37 -44.13 30.72 -44.24 29 -44.24C26.33 -44.24 23.83 -43.97 21.5 -43.43C19.18 -42.9 17.06 -42.14 15.13 -41.16C13.21 -40.19 11.49 -39.01 9.99 -37.65C8.49 -36.28 7.22 -34.77 6.18 -33.11C5.15 -31.45 4.36 -29.65 3.82 -27.73C3.29 -25.81 3.02 -23.81 3.02 -21.74Z M64.33 -43.54L64.33 0L81.26 0L81.29 -43.54Z M106.07 -36.86L106.07 0L123.01 0L123.01 -36.86L135.43 -36.86L135.43 -43.56L93.65 -43.56L93.65 -36.86Z M147.79 -43.54L147.79 0L174.33 0C177.57 0 180.4 -0.37 182.82 -1.1C185.25 -1.83 187.26 -2.8 188.87 -4.01C190.49 -5.22 191.7 -6.61 192.51 -8.17C193.32 -9.74 193.72 -11.36 193.72 -13.04C193.72 -15.5 192.97 -17.58 191.47 -19.28C189.96 -20.98 187.69 -22.27 184.64 -23.14C186.5 -24.26 187.91 -25.58 188.87 -27.11C189.84 -28.65 190.32 -30.28 190.32 -32.02C190.32 -33.76 189.91 -35.34 189.09 -36.75C188.27 -38.17 187.05 -39.38 185.42 -40.39C183.79 -41.39 181.75 -42.17 179.32 -42.71C176.89 -43.26 174.05 -43.54 170.81 -43.54ZM166.54 -25.84L164.72 -25.84L164.75 -37.15L166.54 -37.15C168.14 -37.15 169.48 -36.99 170.58 -36.68C171.67 -36.37 172.55 -35.95 173.2 -35.43C173.85 -34.92 174.32 -34.32 174.61 -33.63C174.89 -32.95 175.03 -32.24 175.03 -31.49C175.03 -30.75 174.89 -30.04 174.61 -29.36C174.32 -28.67 173.85 -28.07 173.2 -27.54C172.55 -27.01 171.67 -26.6 170.58 -26.29C169.48 -25.99 168.14 -25.84 166.54 -25.84ZM166.54 -6.39L164.72 -6.39L164.72 -20.54L167.77 -20.54C169.09 -20.54 170.27 -20.34 171.28 -19.94C172.3 -19.54 173.15 -19.01 173.84 -18.35C174.54 -17.7 175.06 -16.95 175.41 -16.11C175.76 -15.27 175.94 -14.41 175.94 -13.54C175.94 -12.54 175.77 -11.61 175.44 -10.74C175.11 -9.87 174.57 -9.11 173.83 -8.47C173.09 -7.82 172.12 -7.31 170.93 -6.94C169.74 -6.57 168.27 -6.39 166.54 -6.39Z M207.81 -43.54L207.81 0L224.74 0L224.77 -43.54Z M249.55 -36.86L249.55 0L266.48 0L266.48 -36.86L278.91 -36.86L278.91 -43.56L237.13 -43.56L237.13 -36.86Z M291.26 -43.54L291.26 0L328.06 0L328.06 -6.71L308.2 -6.71L308.2 -18.37L323.37 -18.37L323.37 -25.08L308.2 -25.08L308.23 -36.83L328.06 -36.83L328.06 -43.54Z M352.2 -20.92L338.19 0.03L345.87 0.03L355.74 -15.21L365.29 0.03L384.42 0L369.3 -24.14L382.02 -43.54L374.37 -43.54L365.7 -29.94L357.21 -43.54L338.07 -43.54Z"></path>
        </g>
    </g>
</svg>