<?xml version="1.0" encoding="utf-8"?>
<!-- Generator: Adobe Illustrator 21.0.0, SVG Export Plug-In . SVG Version: 6.00 Build 0)  -->
<svg version="1.1" id="图层_1" xmlns="http://www.w3.org/2000/svg" xmlns:xlink="http://www.w3.org/1999/xlink" x="0px" y="0px"
	 viewBox="0 0 841.9 595.3" style="enable-background:new 0 0 841.9 595.3;" xml:space="preserve">
<style type="text/css">
	.st0{fill:#595757;}
	.st1{fill:#F8B500;}
	.st2{fill:#898989;}
</style>
<g>
	<path class="st0" d="M244.7,328.8c8.3-8.6,12.6-19.7,12.7-30.8l-9.9,2.7L244.7,328.8z"/>
	<path class="st0" d="M243.8,266.4c-8.3,8.6-12.6,19.7-12.7,30.8l9.9-2.7L243.8,266.4z"/>
	<path class="st1" d="M231.1,298c0.1,11.1,4.3,22.2,12.7,30.8l-2.7-28.1L231.1,298z"/>
	<path class="st1" d="M257.3,297.2c-0.1-11.1-4.3-22.2-12.7-30.8l2.7,28.1L257.3,297.2z"/>
	<path class="st2" d="M489.2,290v0.5c0,0.8,0,1.5-0.1,1.9c-0.1,0.7-0.4,1.3-0.8,1.7c-0.6,0.6-1.4,0.9-2.5,0.9h-3.3v-9.7h3.3
		c1,0,1.9,0.3,2.5,0.9c0.4,0.4,0.7,1,0.9,1.8C489.1,288.3,489.2,289,489.2,290 M488.1,290v-0.4c0-0.8-0.1-1.4-0.1-1.8
		c-0.1-0.3-0.3-0.6-0.5-0.9c-0.2-0.2-0.5-0.4-0.8-0.5c-0.3-0.1-0.7-0.2-1.1-0.2h-2.1v7.9h2.1c0.4,0,0.8-0.1,1.1-0.2
		c0.3-0.1,0.6-0.3,0.8-0.6c0.3-0.3,0.5-0.8,0.6-1.5C488.1,291.5,488.1,290.9,488.1,290"/>
	<rect x="492.3" y="285.3" class="st2" width="1" height="9.7"/>
	<path class="st2" d="M503.3,291.4c0,0.6-0.1,1-0.2,1.4c-0.1,0.4-0.3,0.8-0.6,1.1c-0.7,0.7-1.6,1.1-2.6,1.1c-1,0-1.8-0.3-2.5-1
		c-0.4-0.4-0.7-0.9-0.8-1.4c-0.1-0.5-0.1-1.4-0.1-2.5c0-1,0-1.6,0-1.9c0.1-0.9,0.4-1.5,0.9-2c0.7-0.7,1.5-1,2.5-1
		c0.9,0,1.7,0.3,2.3,0.8c0.6,0.5,1,1.2,1.1,2.1h-1c-0.1-0.6-0.4-1.1-0.8-1.5c-0.4-0.4-0.9-0.5-1.5-0.5c-0.7,0-1.2,0.2-1.7,0.7
		c-0.3,0.3-0.5,0.7-0.6,1.1c-0.1,0.4-0.1,1.2-0.1,2.2c0,1.1,0,1.8,0.1,2.2c0.1,0.4,0.3,0.8,0.6,1.1c0.4,0.5,1,0.7,1.7,0.7
		c0.8,0,1.4-0.3,1.8-0.8c0.4-0.4,0.5-1,0.5-1.8v-0.7h-2.4v-0.9h3.4V291.4z"/>
	<rect x="506.4" y="285.3" class="st2" width="1" height="9.7"/>
	<polygon class="st2" points="516.6,286.2 513.7,286.2 513.7,295 512.7,295 512.7,286.2 509.9,286.2 509.9,285.3 516.6,285.3 	"/>
	<path class="st2" d="M525.8,295l-1.1,0l-0.8-2.2h-4.2l-0.8,2.2h-1.1l3.6-9.7h0.9L525.8,295z M523.6,291.9l-1.8-5.1l-1.8,5.1H523.6z
		"/>
	<polygon class="st2" points="534.1,295 528.1,295 528.1,285.3 529.1,285.3 529.1,294.1 534.1,294.1 	"/>
	<path class="st2" d="M547.4,295l-1.1,0l-0.8-2.2h-4.2l-0.8,2.2h-1.1l3.6-9.7h0.9L547.4,295z M545.2,291.9l-1.8-5.1l-1.8,5.1H545.2z
		"/>
	<path class="st2" d="M555.5,292.3c0,0.8-0.3,1.5-0.9,2c-0.6,0.5-1.4,0.7-2.4,0.7c-0.7,0-1.4-0.1-1.9-0.3c-0.5-0.2-1-0.5-1.5-1
		l0.7-0.7c0.4,0.4,0.8,0.7,1.2,0.8c0.4,0.2,0.9,0.2,1.5,0.2c0.7,0,1.3-0.2,1.7-0.5c0.4-0.3,0.6-0.8,0.6-1.3c0-0.5-0.2-0.9-0.5-1.2
		c-0.1-0.1-0.3-0.2-0.5-0.3c-0.2-0.1-0.4-0.1-0.8-0.2l-1.1-0.2c-0.8-0.1-1.4-0.4-1.8-0.7c-0.5-0.4-0.7-1-0.7-1.8
		c0-0.8,0.3-1.5,0.8-2c0.6-0.5,1.3-0.8,2.3-0.8c0.6,0,1.1,0.1,1.6,0.2c0.4,0.2,0.9,0.4,1.3,0.8l-0.7,0.7c-0.3-0.3-0.6-0.5-1-0.6
		s-0.8-0.2-1.3-0.2c-0.6,0-1.1,0.2-1.5,0.5c-0.4,0.3-0.5,0.8-0.5,1.3c0,0.5,0.1,0.9,0.4,1.1c0.1,0.1,0.3,0.2,0.6,0.3
		c0.2,0.1,0.5,0.2,0.7,0.2l1.1,0.2c0.4,0.1,0.8,0.1,1.1,0.3c0.3,0.1,0.5,0.2,0.7,0.4C555.2,290.9,555.5,291.5,555.5,292.3"/>
	<path class="st2" d="M564.2,292.3c0,0.8-0.3,1.5-0.9,2c-0.6,0.5-1.4,0.7-2.4,0.7c-0.7,0-1.4-0.1-1.9-0.3c-0.5-0.2-1-0.5-1.5-1
		l0.7-0.7c0.4,0.4,0.8,0.7,1.2,0.8c0.4,0.2,0.9,0.2,1.5,0.2c0.7,0,1.3-0.2,1.7-0.5c0.4-0.3,0.6-0.8,0.6-1.3c0-0.5-0.2-0.9-0.5-1.2
		c-0.1-0.1-0.3-0.2-0.5-0.3c-0.2-0.1-0.4-0.1-0.8-0.2l-1.1-0.2c-0.8-0.1-1.4-0.4-1.8-0.7c-0.5-0.4-0.7-1-0.7-1.8
		c0-0.8,0.3-1.5,0.8-2c0.6-0.5,1.3-0.8,2.3-0.8c0.6,0,1.1,0.1,1.6,0.2c0.4,0.2,0.9,0.4,1.3,0.8l-0.7,0.7c-0.3-0.3-0.6-0.5-1-0.6
		s-0.8-0.2-1.3-0.2c-0.6,0-1.1,0.2-1.5,0.5c-0.4,0.3-0.5,0.8-0.5,1.3c0,0.5,0.1,0.9,0.4,1.1c0.1,0.1,0.3,0.2,0.6,0.3
		c0.2,0.1,0.5,0.2,0.7,0.2l1.1,0.2c0.4,0.1,0.8,0.1,1.1,0.3c0.3,0.1,0.5,0.2,0.7,0.4C563.9,290.9,564.2,291.5,564.2,292.3"/>
	<polygon class="st2" points="573.1,295 567,295 567,285.3 573.1,285.3 573.1,286.2 568.1,286.2 568.1,289.6 572.3,289.6 
		572.3,290.6 568.1,290.6 568.1,294.1 573.1,294.1 	"/>
	<polygon class="st2" points="581.6,286.2 578.8,286.2 578.8,295 577.7,295 577.7,286.2 574.9,286.2 574.9,285.3 581.6,285.3 	"/>
	<path class="st2" d="M589.9,292.3c0,0.8-0.3,1.5-0.9,2c-0.6,0.5-1.4,0.7-2.4,0.7c-0.7,0-1.4-0.1-1.9-0.3c-0.5-0.2-1-0.5-1.5-1
		l0.7-0.7c0.4,0.4,0.8,0.7,1.2,0.8c0.4,0.2,0.9,0.2,1.5,0.2c0.7,0,1.3-0.2,1.7-0.5c0.4-0.3,0.6-0.8,0.6-1.3c0-0.5-0.2-0.9-0.5-1.2
		c-0.1-0.1-0.3-0.2-0.5-0.3c-0.2-0.1-0.4-0.1-0.8-0.2l-1.1-0.2c-0.8-0.1-1.4-0.4-1.8-0.7c-0.5-0.4-0.7-1-0.7-1.8
		c0-0.8,0.3-1.5,0.8-2c0.6-0.5,1.3-0.8,2.3-0.8c0.6,0,1.1,0.1,1.6,0.2c0.4,0.2,0.9,0.4,1.3,0.8l-0.7,0.7c-0.3-0.3-0.6-0.5-1-0.6
		s-0.8-0.2-1.3-0.2c-0.6,0-1.1,0.2-1.5,0.5c-0.4,0.3-0.5,0.8-0.5,1.3c0,0.5,0.1,0.9,0.4,1.1c0.1,0.1,0.3,0.2,0.6,0.3
		c0.2,0.1,0.5,0.2,0.7,0.2l1.1,0.2c0.4,0.1,0.8,0.1,1.1,0.3c0.3,0.1,0.5,0.2,0.7,0.4C589.6,290.9,589.9,291.5,589.9,292.3"/>
	<path class="st2" d="M488.9,306.4c0,0.6-0.1,1-0.2,1.4c-0.1,0.4-0.3,0.8-0.6,1.1c-0.7,0.7-1.6,1.1-2.6,1.1c-1,0-1.8-0.3-2.5-1
		c-0.4-0.4-0.7-0.9-0.8-1.4c-0.1-0.5-0.1-1.4-0.1-2.5c0-1,0-1.6,0-1.9c0.1-0.9,0.4-1.5,0.9-2c0.7-0.7,1.5-1,2.5-1
		c0.9,0,1.7,0.3,2.3,0.8c0.6,0.5,1,1.2,1.1,2.1h-1c-0.1-0.6-0.4-1.1-0.8-1.5c-0.4-0.3-0.9-0.5-1.5-0.5c-0.7,0-1.2,0.2-1.7,0.7
		c-0.3,0.3-0.5,0.7-0.6,1.1c-0.1,0.4-0.1,1.2-0.1,2.2c0,1.1,0,1.8,0.1,2.2c0.1,0.4,0.3,0.8,0.6,1.1c0.4,0.5,1,0.7,1.7,0.7
		c0.8,0,1.4-0.3,1.8-0.8c0.4-0.4,0.5-1,0.5-1.8v-0.7h-2.4v-0.9h3.4V306.4z"/>
	<polygon class="st2" points="498,310 492,310 492,300.2 493,300.2 493,309 498,309 	"/>
	<path class="st2" d="M506.9,305.1c0,1,0,1.6,0,1.9c-0.1,0.9-0.4,1.5-0.9,2c-0.7,0.7-1.5,1-2.5,1c-1,0-1.8-0.3-2.5-1
		c-0.4-0.4-0.7-0.9-0.8-1.4c-0.1-0.5-0.1-1.4-0.1-2.5c0-1,0-1.6,0-1.9c0.1-0.9,0.4-1.5,0.9-2c0.7-0.7,1.5-1,2.5-1c1,0,1.8,0.3,2.5,1
		c0.4,0.4,0.7,0.9,0.8,1.5C506.9,303.1,506.9,303.9,506.9,305.1 M505.9,305.1c0-1.1,0-1.8-0.1-2.2c-0.1-0.4-0.3-0.8-0.6-1.1
		c-0.4-0.5-1-0.7-1.7-0.7c-0.7,0-1.2,0.2-1.7,0.7c-0.3,0.3-0.5,0.7-0.6,1.1c-0.1,0.4-0.1,1.2-0.1,2.2c0,1.1,0,1.8,0.1,2.2
		c0.1,0.4,0.3,0.8,0.6,1.1c0.4,0.5,1,0.7,1.7,0.7c0.7,0,1.2-0.2,1.7-0.7c0.3-0.3,0.5-0.7,0.6-1.1
		C505.8,306.9,505.9,306.2,505.9,305.1"/>
	<path class="st2" d="M516.7,307.3c0,0.9-0.3,1.5-0.8,2c-0.5,0.5-1.2,0.7-2.1,0.7H510v-9.7h3.7c0.9,0,1.5,0.2,2.1,0.7
		c0.5,0.5,0.8,1.1,0.8,1.9c0,0.5-0.1,0.9-0.4,1.3c-0.3,0.4-0.6,0.7-1,0.8c0.5,0.2,0.9,0.5,1.1,0.9S516.7,306.7,516.7,307.3
		 M515.5,302.9c0-0.6-0.2-1-0.5-1.3c-0.3-0.3-0.8-0.4-1.4-0.4h-2.5v3.4h2.5c0.6,0,1-0.1,1.4-0.4
		C515.3,303.8,515.5,303.4,515.5,302.9 M515.7,307.3c0-0.5-0.2-1-0.5-1.3c-0.3-0.3-0.8-0.5-1.4-0.5h-2.6v3.6h2.6
		c0.6,0,1.1-0.2,1.4-0.5C515.5,308.2,515.7,307.8,515.7,307.3"/>
	<path class="st2" d="M526.6,310l-1.1,0l-0.8-2.2h-4.2l-0.8,2.2h-1.1l3.6-9.7h0.9L526.6,310z M524.4,306.9l-1.8-5.1l-1.8,5.1H524.4z
		"/>
	<polygon class="st2" points="534.8,310 528.8,310 528.8,300.2 529.9,300.2 529.9,309 534.8,309 	"/>
	<polygon class="st2" points="547.4,310 541.4,310 541.4,300.2 547.4,300.2 547.4,301.2 542.4,301.2 542.4,304.6 546.7,304.6 
		546.7,305.5 542.4,305.5 542.4,309 547.4,309 	"/>
	<polygon class="st2" points="556.2,310 555,310 552.6,305.9 550.2,310 549.1,310 552,305 549.2,300.2 550.5,300.2 552.6,304.1 
		554.8,300.2 556,300.2 553.2,305 	"/>
	<path class="st2" d="M564.8,307.2c-0.2,0.9-0.5,1.6-1.1,2.1c-0.6,0.5-1.3,0.8-2.2,0.8c-1,0-1.8-0.3-2.5-1c-0.4-0.4-0.7-0.9-0.8-1.4
		c-0.1-0.5-0.1-1.4-0.1-2.5c0-1,0-1.6,0-1.9c0.1-0.9,0.4-1.5,0.9-2c0.7-0.7,1.5-1,2.5-1c0.9,0,1.6,0.3,2.2,0.8
		c0.6,0.5,1,1.2,1.1,2.1h-1.1c-0.1-0.6-0.4-1.1-0.8-1.4c-0.4-0.4-0.9-0.5-1.5-0.5c-0.7,0-1.2,0.2-1.7,0.7c-0.3,0.3-0.5,0.7-0.6,1.1
		c-0.1,0.4-0.1,1.2-0.1,2.2c0,1.1,0,1.8,0.1,2.2c0.1,0.4,0.3,0.8,0.6,1.1c0.4,0.5,1,0.7,1.7,0.7c0.6,0,1.1-0.2,1.5-0.5
		c0.4-0.4,0.7-0.8,0.8-1.4H564.8z"/>
	<polygon class="st2" points="574.5,310 573.5,310 573.5,305.5 568.9,305.5 568.9,310 567.8,310 567.8,300.2 568.9,300.2 
		568.9,304.6 573.5,304.6 573.5,300.2 574.5,300.2 	"/>
	<path class="st2" d="M584.8,310l-1.1,0l-0.8-2.2h-4.2l-0.8,2.2h-1.1l3.6-9.7h0.9L584.8,310z M582.6,306.9l-1.8-5.1l-1.8,5.1H582.6z
		"/>
	<polygon class="st2" points="594.2,310 593.2,310 588,302.2 588,310 587,310 587,300.2 588,300.2 593.1,308 593.1,300.2 
		594.2,300.2 	"/>
	<path class="st2" d="M604.1,306.4c0,0.6-0.1,1-0.2,1.4c-0.1,0.4-0.3,0.8-0.6,1.1c-0.7,0.7-1.6,1.1-2.6,1.1c-1,0-1.8-0.3-2.5-1
		c-0.4-0.4-0.7-0.9-0.8-1.4c-0.1-0.5-0.1-1.4-0.1-2.5c0-1,0-1.6,0-1.9c0.1-0.9,0.4-1.5,0.9-2c0.7-0.7,1.5-1,2.5-1
		c0.9,0,1.7,0.3,2.3,0.8c0.6,0.5,1,1.2,1.1,2.1h-1c-0.1-0.6-0.4-1.1-0.8-1.5c-0.4-0.3-0.9-0.5-1.5-0.5c-0.7,0-1.2,0.2-1.7,0.7
		c-0.3,0.3-0.5,0.7-0.6,1.1c-0.1,0.4-0.1,1.2-0.1,2.2c0,1.1,0,1.8,0.1,2.2c0.1,0.4,0.3,0.8,0.6,1.1c0.4,0.5,1,0.7,1.7,0.7
		c0.8,0,1.4-0.3,1.8-0.8c0.4-0.4,0.5-1,0.5-1.8v-0.7h-2.4v-0.9h3.4V306.4z"/>
	<polygon class="st2" points="613.2,310 607.2,310 607.2,300.2 613.2,300.2 613.2,301.2 608.2,301.2 608.2,304.6 612.5,304.6 
		612.5,305.5 608.2,305.5 608.2,309 613.2,309 	"/>
	<polygon class="st1" points="306.3,276.8 306.3,318.4 300.1,318.4 300.1,298.4 279.2,298.4 279.2,318.4 272.9,318.4 272.9,276.8 
		279.2,276.8 279.2,296.3 300.1,296.3 300.1,276.8 	"/>
	<path class="st1" d="M349.6,305c0,2.6-0.5,14.3-16.2,14.3c0,0-16.3,0.8-16.3-14.3v-28.2h6.3V305c0,12.5,10.6,11.8,10.6,11.8
		c3.3,0,13.1-1.3,13.1-11.8v-28.2h2.6V305z"/>
	<path class="st0" d="M396.6,297.6c0,21.8-22.5,20.8-23,20.8h-13.2v-41.6h13.2C374.2,276.9,396.6,275.5,396.6,297.6 M389.7,297.6
		c-0.1-18.8-13.3-18.8-16-18.8h-7v37.4h7C375.8,316.3,389.7,316.2,389.7,297.6"/>
	<polygon class="st0" points="433,316.3 433,318.4 406.8,318.4 406.8,276.8 433,276.8 433,279 413.1,279 413.1,295.5 429.7,295.5 
		429.7,298 413.1,298 413.1,316.3 	"/>
	<polygon class="st0" points="461.8,295.4 476.9,318.4 469.4,318.4 457.7,300.5 443.7,318.4 440.4,318.4 456.2,298.3 442.2,276.8 
		449.7,276.8 460.3,293.1 473.1,276.8 476.3,276.8 	"/>
</g>
</svg>
